<mxfile host="65bd71144e">
    <diagram id="xXbcn74mod6X94x9iDCw" name="第 1 页">
        <mxGraphModel dx="2336" dy="627" grid="1" gridSize="10" guides="1" tooltips="1" connect="1" arrows="1" fold="1" page="1" pageScale="1" pageWidth="1200" pageHeight="1920" background="#FFFFFF" math="0" shadow="0">
            <root>
                <mxCell id="0"/>
                <mxCell id="1" parent="0"/>
                <mxCell id="3" value="后端" style="whiteSpace=wrap;html=1;" parent="1" vertex="1">
                    <mxGeometry x="450" y="100" width="120" height="60" as="geometry"/>
                </mxCell>
                <mxCell id="4" value="前端" style="whiteSpace=wrap;html=1;" parent="1" vertex="1">
                    <mxGeometry x="180" y="100" width="120" height="60" as="geometry"/>
                </mxCell>
                <mxCell id="5" value="数据库" style="whiteSpace=wrap;html=1;" parent="1" vertex="1">
                    <mxGeometry x="720" y="100" width="120" height="60" as="geometry"/>
                </mxCell>
                <mxCell id="6" value="弄清楚原理" style="whiteSpace=wrap;html=1;" parent="1" vertex="1">
                    <mxGeometry x="50" y="910" width="120" height="60" as="geometry"/>
                </mxCell>
                <mxCell id="7" value="&lt;font color=&quot;#000000&quot;&gt;mapreduce&lt;/font&gt;" style="text;html=1;align=center;verticalAlign=middle;resizable=0;points=[];autosize=1;strokeColor=none;" parent="1" vertex="1">
                    <mxGeometry x="470" y="160" width="80" height="20" as="geometry"/>
                </mxCell>
                <mxCell id="24" value="把shell脚本弄好" style="whiteSpace=wrap;html=1;" parent="1" vertex="1">
                    <mxGeometry x="-150" y="1480" width="120" height="60" as="geometry"/>
                </mxCell>
                <mxCell id="25" value="idea执行脚本,然后读取脚本的输入,不然就输入到文本,然后读取文本" style="whiteSpace=wrap;html=1;" parent="1" vertex="1">
                    <mxGeometry x="-230" y="1710" width="120" height="60" as="geometry"/>
                </mxCell>
                <mxCell id="29" style="edgeStyle=none;html=1;exitX=1;exitY=0;exitDx=0;exitDy=0;entryX=0;entryY=0;entryDx=0;entryDy=0;strokeColor=#000000;" parent="1" source="27" target="28" edge="1">
                    <mxGeometry relative="1" as="geometry"/>
                </mxCell>
                <mxCell id="27" value="前" style="whiteSpace=wrap;html=1;" parent="1" vertex="1">
                    <mxGeometry x="280" y="710" width="310" height="150" as="geometry"/>
                </mxCell>
                <mxCell id="31" style="edgeStyle=none;html=1;exitX=0;exitY=1;exitDx=0;exitDy=0;entryX=1;entryY=1;entryDx=0;entryDy=0;strokeColor=#000000;" parent="1" source="28" target="27" edge="1">
                    <mxGeometry relative="1" as="geometry"/>
                </mxCell>
                <mxCell id="28" value="后" style="whiteSpace=wrap;html=1;" parent="1" vertex="1">
                    <mxGeometry x="840" y="715" width="340" height="140" as="geometry"/>
                </mxCell>
                <mxCell id="32" value="&lt;font color=&quot;#000000&quot;&gt;文本数据:.txt&lt;br&gt;&lt;br&gt;&lt;/font&gt;" style="text;html=1;align=center;verticalAlign=middle;resizable=0;points=[];autosize=1;strokeColor=none;fontSize=19;" parent="1" vertex="1">
                    <mxGeometry x="650" y="650" width="120" height="50" as="geometry"/>
                </mxCell>
                <mxCell id="33" value="&lt;font color=&quot;#000000&quot;&gt;数据:键值对应的东西&lt;br&gt;&lt;/font&gt;" style="text;html=1;align=center;verticalAlign=middle;resizable=0;points=[];autosize=1;strokeColor=none;fontSize=19;" parent="1" vertex="1">
                    <mxGeometry x="590" y="860" width="190" height="30" as="geometry"/>
                </mxCell>
                <mxCell id="35" value="&lt;font color=&quot;#000000&quot;&gt;servlet:setattribute&lt;br&gt;&lt;/font&gt;" style="text;html=1;align=center;verticalAlign=middle;resizable=0;points=[];autosize=1;strokeColor=none;fontSize=19;" parent="1" vertex="1">
                    <mxGeometry x="930" y="890" width="180" height="30" as="geometry"/>
                </mxCell>
                <mxCell id="36" value="&lt;font color=&quot;#000000&quot;&gt;时间:&lt;br&gt;&lt;/font&gt;" style="text;html=1;align=center;verticalAlign=middle;resizable=0;points=[];autosize=1;strokeColor=none;fontSize=19;" parent="1" vertex="1">
                    <mxGeometry x="640" y="945" width="60" height="30" as="geometry"/>
                </mxCell>
                <mxCell id="37" value="词数-value加起来" style="whiteSpace=wrap;html=1;fontSize=19;" parent="1" vertex="1">
                    <mxGeometry x="375" y="1260" width="120" height="60" as="geometry"/>
                </mxCell>
                <mxCell id="38" value="不同词数" style="whiteSpace=wrap;html=1;fontSize=19;" parent="1" vertex="1">
                    <mxGeometry x="375" y="1340" width="120" height="60" as="geometry"/>
                </mxCell>
                <mxCell id="39" value="我" style="whiteSpace=wrap;html=1;fontSize=19;" parent="1" vertex="1">
                    <mxGeometry x="470" y="1040" width="120" height="60" as="geometry"/>
                </mxCell>
                <mxCell id="40" value="3" style="whiteSpace=wrap;html=1;fontSize=19;" parent="1" vertex="1">
                    <mxGeometry x="690" y="1050" width="120" height="60" as="geometry"/>
                </mxCell>
                <mxCell id="41" value="你" style="whiteSpace=wrap;html=1;fontSize=19;" parent="1" vertex="1">
                    <mxGeometry x="480" y="1110" width="120" height="60" as="geometry"/>
                </mxCell>
                <mxCell id="42" value="2" style="whiteSpace=wrap;html=1;fontSize=19;" parent="1" vertex="1">
                    <mxGeometry x="700" y="1120" width="120" height="60" as="geometry"/>
                </mxCell>
                <mxCell id="43" value="实时" style="whiteSpace=wrap;html=1;fontSize=19;" parent="1" vertex="1">
                    <mxGeometry x="790" y="1330" width="120" height="60" as="geometry"/>
                </mxCell>
                <mxCell id="44" value="测试" style="whiteSpace=wrap;html=1;fontSize=19;" parent="1" vertex="1">
                    <mxGeometry x="960" y="1330" width="120" height="60" as="geometry"/>
                </mxCell>
                <mxCell id="45" value="top5" style="whiteSpace=wrap;html=1;fontSize=19;" parent="1" vertex="1">
                    <mxGeometry x="380" y="1430" width="120" height="60" as="geometry"/>
                </mxCell>
                <mxCell id="46" value="前端" style="whiteSpace=wrap;html=1;" vertex="1" parent="1">
                    <mxGeometry x="80" y="2190" width="120" height="60" as="geometry"/>
                </mxCell>
                <mxCell id="50" value="&lt;font color=&quot;#000000&quot; style=&quot;font-size: 20px;&quot;&gt;传递.txt文本&lt;/font&gt;" style="text;html=1;align=center;verticalAlign=middle;resizable=0;points=[];autosize=1;strokeColor=none;fontSize=20;" vertex="1" parent="1">
                    <mxGeometry x="240" y="2150" width="130" height="30" as="geometry"/>
                </mxCell>
                <mxCell id="52" value="original" style="whiteSpace=wrap;html=1;" vertex="1" parent="1">
                    <mxGeometry x="850" y="1510" width="120" height="60" as="geometry"/>
                </mxCell>
                <mxCell id="54" value="original" style="whiteSpace=wrap;html=1;" vertex="1" parent="1">
                    <mxGeometry x="2140" y="1810" width="120" height="60" as="geometry"/>
                </mxCell>
                <mxCell id="60" value="&lt;font color=&quot;#000000&quot; style=&quot;font-size: 28px;&quot;&gt;后端&lt;/font&gt;" style="text;html=1;align=center;verticalAlign=middle;resizable=0;points=[];autosize=1;strokeColor=none;fontSize=28;" vertex="1" parent="1">
                    <mxGeometry x="435" y="2030" width="70" height="40" as="geometry"/>
                </mxCell>
                <mxCell id="67" value="" style="shape=flexArrow;endArrow=classic;html=1;fontSize=18;fillColor=#CCCCCC;exitX=0;exitY=0.5;exitDx=0;exitDy=0;entryX=1;entryY=0.5;entryDx=0;entryDy=0;" edge="1" parent="1" source="53" target="46">
                    <mxGeometry width="50" height="50" relative="1" as="geometry">
                        <mxPoint x="730" y="2410" as="sourcePoint"/>
                        <mxPoint x="780" y="2360" as="targetPoint"/>
                    </mxGeometry>
                </mxCell>
                <mxCell id="68" value="" style="shape=flexArrow;endArrow=classic;html=1;fontSize=18;fillColor=#CCCCCC;exitX=1;exitY=0.5;exitDx=0;exitDy=0;" edge="1" parent="1" source="46">
                    <mxGeometry width="50" height="50" relative="1" as="geometry">
                        <mxPoint x="740" y="2420" as="sourcePoint"/>
                        <mxPoint x="430" y="2160" as="targetPoint"/>
                    </mxGeometry>
                </mxCell>
                <mxCell id="69" value="" style="swimlane;startSize=0;fontSize=18;strokeColor=#000000;fillColor=none;dashed=1;strokeWidth=5;" vertex="1" parent="1">
                    <mxGeometry x="430" y="2080" width="580" height="340" as="geometry"/>
                </mxCell>
                <mxCell id="72" style="edgeStyle=none;html=1;exitX=0.5;exitY=1;exitDx=0;exitDy=0;entryX=0.5;entryY=0;entryDx=0;entryDy=0;fontSize=20;fillColor=#CCCCCC;strokeColor=#666666;" edge="1" parent="69" source="51" target="56">
                    <mxGeometry relative="1" as="geometry"/>
                </mxCell>
                <mxCell id="51" value="source" style="whiteSpace=wrap;html=1;" vertex="1" parent="69">
                    <mxGeometry x="220" y="50" width="120" height="60" as="geometry"/>
                </mxCell>
                <mxCell id="73" style="edgeStyle=none;html=1;exitX=0;exitY=0.5;exitDx=0;exitDy=0;entryX=1;entryY=0.5;entryDx=0;entryDy=0;fontSize=20;fillColor=#CCCCCC;strokeColor=#666666;" edge="1" parent="69" source="56" target="53">
                    <mxGeometry relative="1" as="geometry"/>
                </mxCell>
                <mxCell id="56" value="执行预执行的shell代码" style="whiteSpace=wrap;html=1;" vertex="1" parent="69">
                    <mxGeometry x="220" y="190" width="120" height="60" as="geometry"/>
                </mxCell>
                <mxCell id="53" value="执行shell代码" style="whiteSpace=wrap;html=1;" vertex="1" parent="69">
                    <mxGeometry y="190" width="120" height="60" as="geometry"/>
                </mxCell>
                <mxCell id="59" value="&lt;font color=&quot;#000000&quot;&gt;在HDFS系统中&lt;br&gt;获取分析后的结果&lt;/font&gt;" style="text;html=1;align=center;verticalAlign=middle;resizable=0;points=[];autosize=1;strokeColor=none;fontSize=28;" vertex="1" parent="69">
                    <mxGeometry x="10" y="260" width="240" height="70" as="geometry"/>
                </mxCell>
                <mxCell id="61" value="&lt;font color=&quot;#000000&quot; style=&quot;font-size: 18px&quot;&gt;把文件提交到HDFS系统&lt;br&gt;并用MAPREDUCE进行分析&lt;/font&gt;" style="text;html=1;align=center;verticalAlign=middle;resizable=0;points=[];autosize=1;strokeColor=none;fontSize=18;" vertex="1" parent="69">
                    <mxGeometry x="350" y="190" width="230" height="50" as="geometry"/>
                </mxCell>
                <mxCell id="62" value="&lt;font color=&quot;#000000&quot;&gt;（可以省略）&lt;/font&gt;" style="text;html=1;align=center;verticalAlign=middle;resizable=0;points=[];autosize=1;strokeColor=none;fontSize=28;" vertex="1" parent="69">
                    <mxGeometry x="100" y="10" width="180" height="40" as="geometry"/>
                </mxCell>
                <mxCell id="71" style="edgeStyle=none;html=1;exitX=1;exitY=0.5;exitDx=0;exitDy=0;entryX=0;entryY=0.5;entryDx=0;entryDy=0;fontSize=20;fillColor=#CCCCCC;strokeColor=#666666;" edge="1" parent="69" source="47" target="51">
                    <mxGeometry relative="1" as="geometry"/>
                </mxCell>
                <mxCell id="47" value="original" style="whiteSpace=wrap;html=1;" vertex="1" parent="69">
                    <mxGeometry y="50" width="120" height="60" as="geometry"/>
                </mxCell>
                <mxCell id="70" value="&lt;font color=&quot;#000000&quot; style=&quot;font-size: 20px&quot;&gt;返回Map类型数据&lt;/font&gt;" style="text;html=1;align=center;verticalAlign=middle;resizable=0;points=[];autosize=1;strokeColor=none;fontSize=20;" vertex="1" parent="1">
                    <mxGeometry x="225" y="2280" width="180" height="30" as="geometry"/>
                </mxCell>
            </root>
        </mxGraphModel>
    </diagram>
</mxfile>